<svg width="253" height="56" viewBox="0 0 253 56" fill="none" xmlns="http://www.w3.org/2000/svg">
<path d="M4.25745 37.0082C4.25745 33.0541 7.46289 29.8486 11.417 29.8486V29.8486C15.3711 29.8486 18.5766 33.0541 18.5766 37.0082V37.0082C18.5766 40.9623 15.3711 44.1678 11.417 44.1678V44.1678C7.46289 44.1678 4.25745 40.9623 4.25745 37.0082V37.0082Z" fill="#15803D"/>
<path d="M21.3602 27.4613C21.3602 23.5072 24.5656 20.3018 28.5198 20.3018V20.3018C32.4739 20.3018 35.6793 23.5072 35.6793 27.4613V37.0074C35.6793 40.9615 32.4739 44.167 28.5198 44.167V44.167C24.5656 44.167 21.3602 40.9615 21.3602 37.0074V27.4613Z" fill="#4ADE80"/>
<path d="M21.3603 25.0756C21.3603 21.1215 24.5658 17.916 28.5199 17.916V17.916C32.474 17.916 35.6795 21.1215 35.6795 25.0756V25.0756C35.6795 29.0297 32.474 32.2352 28.5199 32.2352V32.2352C24.5658 32.2352 21.3603 29.0297 21.3603 25.0756V25.0756Z" fill="#15803D"/>
<path d="M38.4641 17.9154C38.4641 13.9613 41.6696 10.7559 45.6237 10.7559V10.7559C49.5778 10.7559 52.7833 13.9613 52.7833 17.9154V37.0076C52.7833 40.9617 49.5778 44.1672 45.6237 44.1672V44.1672C41.6696 44.1672 38.4641 40.9617 38.4641 37.0076V17.9154Z" fill="#4ADE80"/>
<path d="M38.4641 17.9154C38.4641 13.9613 41.6696 10.7559 45.6237 10.7559V10.7559C49.5778 10.7559 52.7833 13.9613 52.7833 17.9154V17.9154C52.7833 21.8696 49.5778 25.075 45.6237 25.075V25.075C41.6696 25.075 38.4641 21.8696 38.4641 17.9154V17.9154Z" fill="#15803D"/>
<path d="M67.5017 10.9962H74.4327L81.7531 28.8559H82.0646L89.385 10.9962H96.316V37.5781H90.8647V20.2765H90.644L83.7649 37.4483H80.0528L73.1737 20.2116H72.9531V37.5781H67.5017V10.9962Z" fill="white"/>
<path d="M103.743 37.9545C102.471 37.9545 101.338 37.7338 100.343 37.2925C99.3476 36.8426 98.5601 36.1806 97.9804 35.3067C97.4093 34.4241 97.1238 33.3251 97.1238 32.0099C97.1238 30.9023 97.3271 29.9721 97.7338 29.2193C98.1405 28.4665 98.6943 27.8608 99.3951 27.4022C100.096 26.9436 100.892 26.5975 101.783 26.3638C102.683 26.1302 103.626 25.9658 104.613 25.8706C105.772 25.7495 106.707 25.637 107.416 25.5332C108.126 25.4207 108.641 25.2563 108.961 25.04C109.281 24.8236 109.441 24.5035 109.441 24.0795V24.0016C109.441 23.1796 109.182 22.5436 108.662 22.0936C108.152 21.6437 107.425 21.4187 106.482 21.4187C105.487 21.4187 104.695 21.6393 104.107 22.0806C103.518 22.5133 103.129 23.0584 102.939 23.7161L97.8246 23.3007C98.0842 22.0893 98.5948 21.0423 99.3562 20.1597C100.118 19.2684 101.1 18.5849 102.303 18.1089C103.514 17.6244 104.916 17.3821 106.508 17.3821C107.615 17.3821 108.675 17.5119 109.688 17.7715C110.709 18.0311 111.613 18.4334 112.401 18.9786C113.197 19.5237 113.824 20.2246 114.283 21.0812C114.741 21.9292 114.97 22.9459 114.97 24.1314V37.5781H109.727V34.8134H109.571C109.251 35.4365 108.823 35.9859 108.286 36.4618C107.75 36.9291 107.105 37.2968 106.352 37.5651C105.599 37.8247 104.73 37.9545 103.743 37.9545ZM105.327 34.1385C106.14 34.1385 106.858 33.9784 107.481 33.6583C108.104 33.3295 108.593 32.8882 108.948 32.3344C109.303 31.7806 109.48 31.1532 109.48 30.4524V28.3367C109.307 28.4492 109.069 28.553 108.766 28.6482C108.472 28.7348 108.139 28.817 107.767 28.8948C107.395 28.9641 107.023 29.029 106.651 29.0895C106.279 29.1414 105.941 29.189 105.638 29.2323C104.989 29.3275 104.422 29.4789 103.938 29.6866C103.453 29.8942 103.077 30.1755 102.809 30.5302C102.54 30.8764 102.406 31.309 102.406 31.8282C102.406 32.581 102.679 33.1564 103.224 33.5544C103.778 33.9438 104.479 34.1385 105.327 34.1385Z" fill="white"/>
<path d="M116.476 37.5781V17.6417H121.836V21.1202H122.044C122.407 19.8828 123.017 18.9483 123.874 18.3166C124.731 17.6763 125.717 17.3561 126.833 17.3561C127.11 17.3561 127.409 17.3734 127.729 17.4081C128.049 17.4427 128.33 17.4903 128.573 17.5508V22.457C128.313 22.3792 127.954 22.3099 127.495 22.2494C127.037 22.1888 126.617 22.1585 126.236 22.1585C125.423 22.1585 124.696 22.3359 124.056 22.6907C123.424 23.0368 122.922 23.5214 122.55 24.1444C122.187 24.7674 122.005 25.4856 122.005 26.299V37.5781H116.476Z" fill="white"/>
<path d="M133.657 31.8412L133.67 25.2087H134.475L140.861 17.6417H147.208L138.628 27.6618H137.317L133.657 31.8412ZM128.647 37.5781V10.9962H134.176V37.5781H128.647ZM141.107 37.5781L135.241 28.8948L138.927 24.988L147.584 37.5781H141.107Z" fill="white"/>
<path d="M155.401 37.9674C153.35 37.9674 151.585 37.5521 150.105 36.7214C148.634 35.8821 147.5 34.6966 146.704 33.1651C145.908 31.6248 145.51 29.8034 145.51 27.7007C145.51 25.65 145.908 23.8502 146.704 22.3013C147.5 20.7524 148.621 19.5453 150.066 18.68C151.52 17.8147 153.224 17.3821 155.18 17.3821C156.495 17.3821 157.72 17.5941 158.853 18.0181C159.995 18.4334 160.99 19.0608 161.838 19.9001C162.695 20.7394 163.361 21.7951 163.837 23.0671C164.313 24.3304 164.551 25.8101 164.551 27.506V29.0246H147.717V25.5981H159.346C159.346 24.802 159.173 24.0968 158.827 23.4824C158.481 22.8681 158.001 22.3878 157.386 22.0417C156.781 21.6869 156.075 21.5096 155.271 21.5096C154.431 21.5096 153.687 21.7042 153.038 22.0936C152.398 22.4744 151.896 22.9892 151.533 23.6382C151.169 24.2785 150.983 24.9924 150.975 25.7798V29.0376C150.975 30.024 151.156 30.8764 151.52 31.5945C151.892 32.3127 152.415 32.8665 153.09 33.2559C153.765 33.6453 154.566 33.84 155.491 33.84C156.106 33.84 156.668 33.7535 157.179 33.5804C157.689 33.4073 158.126 33.1478 158.49 32.8016C158.853 32.4555 159.13 32.0315 159.32 31.5297L164.434 31.8671C164.175 33.0958 163.642 34.1688 162.838 35.086C162.042 35.9946 161.012 36.7041 159.749 37.2146C158.494 37.7165 157.045 37.9674 155.401 37.9674Z" fill="white"/>
<path d="M175.979 17.6417V21.7951H163.973V17.6417H175.979ZM166.699 12.8653H172.228V31.4518C172.228 31.9623 172.306 32.3603 172.462 32.6459C172.618 32.9228 172.834 33.1175 173.111 33.23C173.396 33.3424 173.725 33.3987 174.097 33.3987C174.357 33.3987 174.616 33.3771 174.876 33.3338C175.136 33.2819 175.335 33.2429 175.473 33.217L176.343 37.3314C176.066 37.418 175.676 37.5175 175.174 37.63C174.673 37.7511 174.063 37.8247 173.344 37.8506C172.012 37.9025 170.844 37.7252 169.84 37.3185C168.845 36.9118 168.07 36.2801 167.517 35.4235C166.963 34.5668 166.69 33.4852 166.699 32.1786V12.8653Z" fill="white"/>
<path d="M191.321 18.6411C191.217 17.5941 190.771 16.7807 189.984 16.201C189.196 15.6212 188.128 15.3314 186.778 15.3314C185.861 15.3314 185.086 15.4612 184.455 15.7207C183.823 15.9717 183.338 16.3221 183.001 16.7721C182.672 17.222 182.508 17.7325 182.508 18.3036C182.49 18.7796 182.59 19.1949 182.806 19.5497C183.031 19.9044 183.338 20.2116 183.728 20.4712C184.117 20.7221 184.567 20.9428 185.078 21.1332C185.588 21.3149 186.133 21.4706 186.713 21.6004L189.101 22.1715C190.261 22.4311 191.325 22.7772 192.294 23.2099C193.263 23.6425 194.103 24.1747 194.812 24.8063C195.522 25.438 196.071 26.1821 196.46 27.0388C196.858 27.8954 197.062 28.8775 197.07 29.9851C197.062 31.6119 196.646 33.0223 195.824 34.2164C195.011 35.4018 193.834 36.3234 192.294 36.981C190.762 37.63 188.915 37.9545 186.752 37.9545C184.606 37.9545 182.737 37.6256 181.145 36.968C179.561 36.3104 178.324 35.3369 177.433 34.0477C176.55 32.7497 176.087 31.1446 176.044 29.2323H181.482C181.543 30.1236 181.798 30.8677 182.248 31.4648C182.707 32.0532 183.317 32.4988 184.078 32.8016C184.848 33.0958 185.718 33.2429 186.687 33.2429C187.639 33.2429 188.465 33.1045 189.166 32.8276C189.876 32.5507 190.425 32.1656 190.814 31.6724C191.204 31.1792 191.398 30.6124 191.398 29.9721C191.398 29.3751 191.221 28.8732 190.866 28.4665C190.52 28.0598 190.01 27.7137 189.335 27.4282C188.668 27.1426 187.851 26.883 186.882 26.6494L183.987 25.9226C181.746 25.3774 179.977 24.5251 178.679 23.3656C177.381 22.2061 176.736 20.6443 176.745 18.68C176.736 17.0706 177.164 15.6645 178.03 14.4617C178.904 13.259 180.102 12.3201 181.625 11.6452C183.148 10.9703 184.878 10.6328 186.817 10.6328C188.79 10.6328 190.512 10.9703 191.983 11.6452C193.462 12.3201 194.613 13.259 195.435 14.4617C196.257 15.6645 196.681 17.0576 196.707 18.6411H191.321Z" fill="white"/>
<path d="M203.648 37.9545C202.376 37.9545 201.242 37.7338 200.247 37.2925C199.252 36.8426 198.464 36.1806 197.885 35.3067C197.314 34.4241 197.028 33.3251 197.028 32.0099C197.028 30.9023 197.231 29.9721 197.638 29.2193C198.045 28.4665 198.599 27.8608 199.299 27.4022C200 26.9436 200.796 26.5975 201.688 26.3638C202.588 26.1302 203.531 25.9658 204.517 25.8706C205.677 25.7495 206.611 25.637 207.321 25.5332C208.03 25.4207 208.545 25.2563 208.865 25.04C209.185 24.8236 209.346 24.5035 209.346 24.0795V24.0016C209.346 23.1796 209.086 22.5436 208.567 22.0936C208.056 21.6437 207.329 21.4187 206.386 21.4187C205.391 21.4187 204.599 21.6393 204.011 22.0806C203.423 22.5133 203.033 23.0584 202.843 23.7161L197.729 23.3007C197.989 22.0893 198.499 21.0423 199.261 20.1597C200.022 19.2684 201.004 18.5849 202.207 18.1089C203.418 17.6244 204.82 17.3821 206.412 17.3821C207.52 17.3821 208.58 17.5119 209.592 17.7715C210.613 18.0311 211.517 18.4334 212.305 18.9786C213.101 19.5237 213.728 20.2246 214.187 21.0812C214.645 21.9292 214.875 22.9459 214.875 24.1314V37.5781H209.631V34.8134H209.475C209.155 35.4365 208.727 35.9859 208.19 36.4618C207.654 36.9291 207.009 37.2968 206.256 37.5651C205.504 37.8247 204.634 37.9545 203.648 37.9545ZM205.231 34.1385C206.044 34.1385 206.763 33.9784 207.386 33.6583C208.009 33.3295 208.498 32.8882 208.852 32.3344C209.207 31.7806 209.384 31.1532 209.384 30.4524V28.3367C209.211 28.4492 208.973 28.553 208.671 28.6482C208.376 28.7348 208.043 28.817 207.671 28.8948C207.299 28.9641 206.927 29.029 206.555 29.0895C206.183 29.1414 205.845 29.189 205.543 29.2323C204.894 29.3275 204.327 29.4789 203.842 29.6866C203.358 29.8942 202.981 30.1755 202.713 30.5302C202.445 30.8764 202.311 31.309 202.311 31.8282C202.311 32.581 202.583 33.1564 203.128 33.5544C203.682 33.9438 204.383 34.1385 205.231 34.1385Z" fill="white"/>
<path d="M234.253 17.6417L227.283 37.5781H221.053L214.083 17.6417H219.924L224.064 31.9061H224.272L228.399 17.6417H234.253Z" fill="white"/>
<path d="M237.712 45.0542C237.011 45.0542 236.353 44.9979 235.739 44.8855C235.133 44.7816 234.631 44.6475 234.233 44.4831L235.479 40.3556C236.128 40.5547 236.712 40.6628 237.231 40.6801C237.759 40.6974 238.213 40.5763 238.594 40.3167C238.984 40.0571 239.299 39.6158 239.542 38.9928L239.866 38.1491L232.714 17.6417H238.529L242.657 32.2825H242.864L247.031 17.6417H252.884L245.136 39.7326C244.764 40.8056 244.257 41.7401 243.617 42.5362C242.986 43.3409 242.185 43.9596 241.216 44.3922C240.247 44.8335 239.079 45.0542 237.712 45.0542Z" fill="white"/>
</svg>
