<svg width="69" height="69" viewBox="0 0 69 69" fill="none" xmlns="http://www.w3.org/2000/svg">
<circle cx="34.5" cy="34.5" r="33.5" stroke="#1D9ED9" stroke-width="2"/>
<path d="M26.3167 48.7509C26.3167 48.406 26.2504 48.2336 26.1178 48.2336L25.2025 48.6713C25.2025 48.4856 25.0964 48.353 24.8842 48.2734L24.5658 48.2336C24.3536 48.2336 24.0883 48.3264 23.77 48.5121C23.7169 48.3795 23.6506 48.2468 23.571 48.1142C23.4914 47.9816 23.4251 47.8622 23.3721 47.7561C23.0272 47.0929 22.6823 46.3633 22.3374 45.5675C22.0191 44.7451 21.714 43.9625 21.4222 43.2197C21.1569 42.4769 20.9447 41.8932 20.7855 41.4688C20.6794 41.1239 20.56 40.6066 20.4274 39.9168C20.2947 39.2271 20.1621 38.3516 20.0294 37.2905C20.3213 37.4762 20.5468 37.5691 20.7059 37.5691C20.8916 37.5691 21.0641 37.2905 21.2232 36.7334C21.3028 36.8395 21.4487 36.8926 21.661 36.8926C21.8201 36.8926 21.9395 36.8395 22.0191 36.7334L22.6558 35.7784L23.3721 36.0171H23.4119C23.4649 36.0171 23.518 35.9906 23.571 35.9375C23.6241 35.8845 23.7037 35.8314 23.8098 35.7784C24.022 35.6457 24.1812 35.5794 24.2873 35.5794L24.4067 35.6192C25.0699 35.9375 25.4944 36.5212 25.6801 37.3701C26.1576 39.3863 26.6351 40.3944 27.1126 40.3944C27.5901 40.3944 28.1472 39.8903 28.7839 38.8822C29.1023 38.3782 29.4206 37.7945 29.7389 37.1313C30.0838 36.4681 30.4287 35.7253 30.7736 34.9029C30.8266 35.2213 30.8797 35.3804 30.9327 35.3804C31.0654 35.3804 31.2909 35.0488 31.6092 34.3856C31.9541 33.7224 32.4979 32.8072 33.2407 31.6399C33.6652 30.9236 34.1958 30.1145 34.8325 29.2125C35.4957 28.3105 36.1987 27.382 36.9415 26.427C37.6843 25.472 38.4006 24.57 39.0903 23.7211C39.8066 22.8722 40.4433 22.1426 41.0004 21.5325C41.5575 20.9223 41.9687 20.5244 42.234 20.3387C43.242 19.6489 44.0379 18.9857 44.6215 18.349C44.595 18.5347 44.5552 18.7072 44.5022 18.8663C44.4756 18.999 44.4624 19.0918 44.4624 19.1449C44.4624 19.251 44.5154 19.3041 44.6215 19.3041L45.7357 18.747V18.9061C45.7357 19.1184 45.7888 19.2245 45.8949 19.2245C45.9745 19.2245 46.1337 19.1051 46.3724 18.8663C46.6112 18.6276 46.7438 18.4551 46.7704 18.349L46.6908 18.9061L48.0437 18.1103L47.7254 18.8265C48.1499 18.5347 48.4549 18.3888 48.6406 18.3888C48.7467 18.3888 48.8263 18.4551 48.8794 18.5878C48.9324 18.6939 48.959 18.8 48.959 18.9061C48.959 19.0653 48.8927 19.251 48.76 19.4632C48.6274 19.6755 48.4549 19.9275 48.2427 20.2193C48.0835 20.4315 47.8182 20.7499 47.4468 21.1743C47.102 21.5723 46.5714 22.1692 45.8551 22.965C45.1388 23.7343 44.1838 24.8088 42.99 26.1882C42.6717 26.5331 42.1809 27.1433 41.5177 28.0187C40.8545 28.8676 40.0984 29.8625 39.2495 31.0032C38.4271 32.1174 37.6047 33.2449 36.7823 34.3856C35.9599 35.5263 35.2304 36.561 34.5937 37.4895C33.957 38.3914 33.506 39.0679 33.2407 39.5189L30.7736 43.6972C30.243 44.5992 29.8053 45.342 29.4604 45.9256C29.1155 46.4827 28.8502 46.8674 28.6645 47.0796C28.2666 47.5571 27.8289 47.9816 27.3514 48.353L26.9932 48.154L26.6749 48.353L26.3167 48.7509Z" fill="#1D9ED9"/>
</svg>
