<svg width="16" height="13" viewBox="0 0 16 13" fill="none" xmlns="http://www.w3.org/2000/svg">
<path d="M14.9402 7.02141L9.44489 12.2937C9.33032 12.4036 9.17493 12.4654 9.0129 12.4654C8.85087 12.4654 8.69548 12.4036 8.5809 12.2937C8.46633 12.1838 8.40197 12.0347 8.40197 11.8792C8.40197 11.7238 8.46633 11.5747 8.5809 11.4648L13.0344 7.19276L1.07519 7.19276C0.913253 7.19276 0.757947 7.13104 0.643438 7.02118C0.52893 6.91132 0.4646 6.76232 0.4646 6.60695C0.4646 6.45159 0.52893 6.30258 0.643438 6.19272C0.757947 6.08286 0.913253 6.02114 1.07519 6.02114L13.0344 6.02114L8.5809 1.74913C8.46633 1.63921 8.40197 1.49012 8.40197 1.33467C8.40197 1.17922 8.46633 1.03013 8.5809 0.92021C8.69548 0.810288 8.85087 0.748535 9.0129 0.748535C9.17493 0.748535 9.33032 0.810288 9.44489 0.92021L14.9402 6.19249C14.997 6.2469 15.042 6.31151 15.0728 6.38262C15.1035 6.45374 15.1193 6.52997 15.1193 6.60695C15.1193 6.68394 15.1035 6.76017 15.0728 6.83128C15.042 6.9024 14.997 6.96701 14.9402 7.02141Z" fill="white"/>
</svg>
