<svg width="80" height="80" viewBox="0 0 80 80" fill="none" xmlns="http://www.w3.org/2000/svg">
<path d="M33.083 9.90137C36.6774 5.57042 43.3226 5.57042 46.917 9.90137C49.2336 12.6931 52.7794 14.1621 56.3916 13.8262C61.9959 13.3051 66.6949 18.0041 66.1738 23.6084C65.8379 27.2206 67.3069 30.7664 70.0986 33.083C74.4296 36.6774 74.4296 43.3226 70.0986 46.917C67.3069 49.2336 65.8379 52.7794 66.1738 56.3916C66.6949 61.9959 61.9959 66.6949 56.3916 66.1738C52.7794 65.8379 49.2336 67.3069 46.917 70.0986C43.3226 74.4296 36.6774 74.4296 33.083 70.0986C30.7664 67.3069 27.2206 65.8379 23.6084 66.1738C18.0041 66.6949 13.3051 61.9959 13.8262 56.3916C14.1621 52.7794 12.6931 49.2336 9.90137 46.917C5.57042 43.3226 5.57042 36.6774 9.90137 33.083C12.6931 30.7664 14.1621 27.2206 13.8262 23.6084C13.3051 18.0041 18.0041 13.3051 23.6084 13.8262C27.2206 14.1621 30.7664 12.6931 33.083 9.90137Z" stroke="#1D9ED9" stroke-width="2"/>
<line x1="40.9999" y1="25" x2="40.9999" y2="46.4286" stroke="#1D9ED9" stroke-width="2"/>
<circle cx="40.4286" cy="53.5716" r="0.928571" fill="#1D9ED9" stroke="#1D9ED9"/>
</svg>
